<svg version="1.2" xmlns="http://www.w3.org/2000/svg" viewBox="0 0 45 45" width="45" height="45">
	<title>handpointing-svg</title>
	<style>
		.s0 { fill: #000000 } 
		.s1 { fill: #ffffff } 
	</style>
	<g id="Layer">
		<path id="Layer" fill-rule="evenodd" class="s0" d="m18.1 30.3c0.2 0.2 0.4 0.3 0.8 0.8 0.5 0.4 0.7 0.6 0.9 0.7q0.1 0.2 0.2 0.6 0 0.3-0.1 0.7 0 0.1 0 0.2c0 0.3 0.2 0.6 0.5 0.6 0.3 0 0.6 0 1.2 0 0.1 0 0.1 0 0.3 0 1.6 0 2.4 0 3-0.1 0.7 0 1.3-0.8 1.9-1.8 0.5 0.9 1.1 1.7 1.8 1.8q0.3 0.1 0.8 0.1 0.3 0 0.7-0.1 0.3 0 0.4 0c0.3-0.1 0.5-0.4 0.4-0.7q0-0.1 0-0.3-0.1-0.3-0.1-0.5 0-0.2 0-0.3c0-0.1 0-0.2 0-0.4 0-0.1 0-0.1 0-0.1 0-0.2 0-0.4 0.1-0.8 0.1-0.2 0.2-0.5 0.5-0.9q0.1-0.2 0.3-0.4 0.2-0.3 0.5-0.7 0.2-0.2 0.3-0.3c0.4-0.6 0.8-1.6 1-2.1 0.2-0.6 0.3-1.6 0.4-2.6 0-0.6 0-1 0-1.7 0-0.2 0-0.2 0-0.3 0-0.1 0-0.2 0-0.3 0-0.2 0-0.4 0-0.9-0.1-1.2-0.7-1.9-1.6-2.1-0.8-0.1-1.7 0.6-1.7 0.6 0 0-0.3-0.8-0.4-1-0.2-0.4-0.8-0.8-1.3-0.9-0.5-0.1-1-0.1-1.5 0-0.5 0.1-0.9 0.5-1.2 0.9-0.2 0.3 0 0-0.2-0.3-0.3-0.5-0.9-0.9-1.4-1-0.5-0.1-1.1 0-1.6 0.1-0.6 0.2-0.7 0.7-0.8 0.6 0-0.5-0.1-0.5-0.1-0.8-0.2-1.3-0.4-2.2-0.8-2.9 0 0-0.1-0.3-0.1-0.4q-0.2-0.3-0.3-0.6-0.5-0.8-1.1-1.1c-0.8-0.4-1.9-0.2-2.5 0.4-0.5 0.7-0.6 1.7-0.5 3 0.1 0.5 0.2 1.5 0.4 2.2 0.1 0.2 0.1 0.4 0.2 0.8 0 0.1 0 0.1 0 0.1 0.1 0.3 0.2 0.6 0.3 0.9 0-0.1 0.1 0.5 0.1 0.6 0 0 0 0 0 0 0.1 0.3 0.2 0.5 0.2 0.9q0.1 0.3 0.2 0.7c0.1 0.6 0.1 0.5 0 0.3q-0.1-0.1-0.2-0.2-0.3-0.2-0.4-0.4c-0.9-0.7-1.5-1-2.2-1.1-1.3-0.1-2.4 0.7-2.6 1.9-0.1 0.7-0.1 1.1 0.3 1.7 0.1 0.3 0.5 0.8 1 1.5 0.1 0 0.1 0 0.1 0.1 0.7 0.8 0.8 0.9 1 1.2 0.4 0.6 1.5 2.5 1.7 2.8z"/>
		<path id="Layer" fill-rule="evenodd" class="s1" d="m15 24.3c0-0.1 0-0.1 0-0.1-0.6-0.7-0.9-1-1-1.3-0.2-0.4-0.2-0.5-0.2-1 0.1-0.6 0.8-1.1 1.5-1.1 0.5 0.1 0.9 0.3 1.6 0.9q0.1 0.1 0.3 0.3 0.1 0.1 0.2 0.2c0.1 0.2 0.5 0.6 0.4 0.6q0.1 0.1 0.2 0.2c0.2 0.2 0.2 0.3 0.3 0.5 0-0.1 0.3 0.4 0.4 0.4 0.4 0.4 1 0.1 0.9-0.4q0-0.1 0-0.3c-0.2-1.2-0.2-1.5-0.4-2.2q0-0.4-0.1-0.8c-0.1-0.4-0.2-0.6-0.2-0.8 0-0.1 0-0.1-0.1-0.1 0-0.1-0.1-0.6-0.1-0.6-0.1-0.3-0.2-0.5-0.2-0.8 0-0.1 0-0.1-0.1-0.1-0.1-0.4-0.1-0.7-0.2-0.9-0.1-0.6-0.3-1.5-0.3-2-0.1-1-0.1-1.9 0.2-2.2 0.2-0.2 0.8-0.3 1.2-0.2q0.3 0.2 0.7 0.8 0.1 0.2 0.2 0.4c0 0.1 0.2 0.4 0.2 0.4 0.3 0.7 0.5 1.5 0.7 2.6q0 0.5 0.2 1.3c0 0.1 0 0.1 0 0.2 0.4 2.3 0.4 2.2 0.4 2.4 0 0.6 1 0.6 1.1 0 0-0.2 0-0.4 0-1-0.1-0.1-0.1-0.1-0.1-0.1 0-0.5 0-0.8 0.1-1 0-0.3 0.3-0.6 0.5-0.7 0.4-0.1 0.8-0.1 1.1-0.1 0.2 0.1 0.6 0.3 0.7 0.5q0.2 0.3 0.3 0.9 0.1 0.5 0.1 1c0 0.1 0 0.2 0 0.3 0 0.1 0 0.1 0 0.1 0 0.1 0 0.1 0.1 0.1 0 0 0 0 0 0.1 0 0.2 0 0.2 0.8 0.3 0.2-0.3 0.2-0.3 0.2-0.4 0-0.1 0.1-0.3 0.1-0.7 0-0.2 0-0.3 0-0.4q0.1-0.7 0.2-0.9c0.1-0.2 0.5-0.4 0.6-0.5 0.4 0 0.9-0.1 1.2 0 0.2 0 0.5 0.3 0.6 0.5 0.2 0.2 0.4 1.2 0.5 2.1-0.1 0-0.1 0 0.2 0.4 0.8-0.1 0.8-0.1 0.8-0.3q0 0 0.1-0.2c0-0.2 0.1-0.3 0.1-0.5q0.1-0.1 0.1-0.2c0.2-0.3 0.7-0.5 1-0.4 0.4 0 0.7 0.3 0.7 1 0.1 0.5 0.1 0.7 0.1 0.9 0 0.1 0 0.2 0 0.3 0 0.1 0 0.1 0 0.3 0 0.7 0 1.1-0.1 1.6-0.1 0.9-0.2 1.9-0.3 2.4-0.1 0.4-0.5 1.3-0.9 1.8 0 0-0.1 0.1-0.2 0.2q-0.3 0.4-0.6 0.8-0.1 0.2-0.3 0.4-0.5 0.8-0.6 1.3c-0.1 0.4-0.1 0.7-0.1 0.9-0.1 0.1-0.1 0.1-0.1 0.2 0 0.1 0 0.2 0 0.3q0 0.2 0 0.4c0.1 0.2 0 0.5 0 0.5 0 0-0.1 0-0.3 0q-0.4 0-0.6 0c-0.2 0-0.8-0.7-1-1.3-0.5-0.8-1.5-0.7-1.9 0-0.4 0.6-1 1.3-1.1 1.3-0.5 0.1-1.4 0.1-2.9 0.1-0.2-0.1-0.2-0.1-0.3-0.1-0.6 0-0.6 0.1-0.6 0 0-0.3 0-0.2 0-0.5 0-0.6-0.2-1-0.5-1.3-0.2-0.1-0.4-0.3-0.8-0.7-0.5-0.4-0.7-0.6-0.8-0.7l-1.2-1.3c-0.1-0.2-1.2-2-1.7-2.7-0.2-0.3-0.2-0.4-1-1.3zm2.8-1.5q0 0 0 0 0 0 0 0zm0.5 0.7q0 0 0 0 0 0 0 0zm0.4-4.8q0 0 0 0 0 0 0 0zm9.7 5.6v4.9c0 0.7 1 0.7 1 0v-4.9c0-0.7-1-0.7-1 0zm-2.9 0l0.1 4.9c0 0.7 1 0.7 1 0v-4.9c0-0.7-1.1-0.7-1.1 0zm-1.7 4.8v-4.8c0-0.7-1.1-0.7-1 0v4.9c0 0.7 1 0.7 1-0.1z"/>
	</g>
</svg>