<svg version="1.2" xmlns="http://www.w3.org/2000/svg" viewBox="0 0 45 45" width="45" height="45">
	<title>notallowed-svg</title>
	<defs>
		<linearGradient id="g1" x2="1" gradientUnits="userSpaceOnUse" gradientTransform="matrix(0,25.313,-25.313,0,23.906,19.688)">
			<stop offset="0" stop-color="#f0f0f0"/>
			<stop offset="1" stop-color="#d5d5d5"/>
		</linearGradient>
	</defs>
	<style>
		.s0 { fill: url(#g1) } 
		.s1 { fill: #ffffff } 
		.s2 { fill: #000000 } 
	</style>
	<g id="Layer">
		<path id="Layer" fill-rule="evenodd" class="s0" d="m23.9 45c-7 0-12.6-5.7-12.6-12.7 0-7 5.6-12.6 12.6-12.6 7 0 12.7 5.6 12.7 12.6 0 7-5.7 12.7-12.7 12.7zm7.9-6.8c1.2-1.6 2-3.7 2-5.9 0-5.4-4.5-9.8-9.9-9.8-2.2 0-4.2 0.7-5.9 2zm-7.9 3.9c2.3 0 4.3-0.7 6-2l-13.8-13.7c-1.3 1.6-2 3.7-2 5.9 0 5.4 4.4 9.8 9.8 9.8z"/>
		<path id="Layer" fill-rule="evenodd" class="s1" d="m9.8 23.1v-22.5l16.3 16.3h-9.9l-0.2 0.2z"/>
		<path id="Layer" fill-rule="evenodd" class="s2" d="m11.3 4l-0.1 15.7 4.2-4 0.3-0.2h7z"/>
	</g>
</svg>